G04*
G04 #@! TF.GenerationSoftware,Altium Limited,Altium Designer,19.1.7 (138)*
G04*
G04 Layer_Color=128*
%FSLAX25Y25*%
%MOIN*%
G70*
G01*
G75*
%ADD17R,0.03937X0.04331*%
%ADD19R,0.03200X0.04000*%
%ADD45R,0.04000X0.03200*%
%ADD46R,0.04331X0.03937*%
G36*
X131500Y222125D02*
X129500Y224125D01*
X127500Y222125D01*
Y225125D01*
X131500D01*
Y222125D01*
D02*
G37*
G36*
Y221125D02*
Y220125D01*
X127500D01*
Y221125D01*
X129500Y223125D01*
X131500Y221125D01*
D02*
G37*
G36*
X270000Y190500D02*
Y188500D01*
X267000D01*
X269000Y190500D01*
X267000Y192500D01*
X270000D01*
Y190500D01*
D02*
G37*
G36*
X268000D02*
X266000Y188500D01*
X265000D01*
Y192500D01*
X266000D01*
X268000Y190500D01*
D02*
G37*
G36*
X269750Y184500D02*
Y182500D01*
X266750D01*
X268750Y184500D01*
X266750Y186500D01*
X269750D01*
Y184500D01*
D02*
G37*
G36*
X267750D02*
X265750Y182500D01*
X264750D01*
Y186500D01*
X265750D01*
X267750Y184500D01*
D02*
G37*
G36*
X248203Y89500D02*
Y87500D01*
X245203D01*
X247203Y89500D01*
X245203Y91500D01*
X248203D01*
Y89500D01*
D02*
G37*
G36*
X246203D02*
X244203Y87500D01*
X243203D01*
Y91500D01*
X244203D01*
X246203Y89500D01*
D02*
G37*
G36*
X247953Y74000D02*
X246953D01*
X244953Y76000D01*
X246953Y78000D01*
X247953D01*
Y74000D01*
D02*
G37*
G36*
X243953Y76000D02*
X245953Y74000D01*
X242953D01*
Y76000D01*
Y78000D01*
X245953D01*
X243953Y76000D01*
D02*
G37*
D17*
X352500Y269500D02*
D03*
X346202D02*
D03*
X352500Y253500D02*
D03*
X346202D02*
D03*
X352500Y261500D02*
D03*
X346202D02*
D03*
X365000Y137000D02*
D03*
X358701D02*
D03*
X368500Y240500D02*
D03*
X375586D02*
D03*
X368500Y224500D02*
D03*
X375586D02*
D03*
X368500Y209000D02*
D03*
X375586D02*
D03*
X140649Y243894D02*
D03*
X134351D02*
D03*
X159149D02*
D03*
X152851D02*
D03*
X148500Y229000D02*
D03*
X142202D02*
D03*
X146913Y37500D02*
D03*
X154000D02*
D03*
X99913Y38000D02*
D03*
X107000D02*
D03*
X249121Y104500D02*
D03*
X242035D02*
D03*
X28701Y263000D02*
D03*
X35000D02*
D03*
X38000Y237500D02*
D03*
X30914D02*
D03*
X52500Y226000D02*
D03*
X58798D02*
D03*
X358701Y109500D02*
D03*
X365000D02*
D03*
X358701Y189000D02*
D03*
X365000D02*
D03*
X358701Y163500D02*
D03*
X365000D02*
D03*
D19*
X242203Y89500D02*
D03*
X248953D02*
D03*
X263750Y184500D02*
D03*
X270500D02*
D03*
X264000Y190500D02*
D03*
X270750D02*
D03*
X248953Y76000D02*
D03*
X242203D02*
D03*
D45*
X129500Y219125D02*
D03*
Y225875D02*
D03*
D46*
X24500Y109587D02*
D03*
Y102500D02*
D03*
M02*
