M48
;Layer_Color=9474304
;FILE_FORMAT=2:5
INCH,TZ
;TYPE=PLATED
T1F00S00C0.00800
T2F00S00C0.01000
T3F00S00C0.03543
T4F00S00C0.03600
T5F00S00C0.03900
T6F00S00C0.03937
%
T01
X54000Y38000
Y67000
X75000Y67500
X102000Y90000
X115500Y85000
X119000Y78000
X129500Y103000
X132500Y102000
X144000Y107000
X148000Y127000
X89000Y113000
X54000Y96500
X30000Y80000
X54000Y144000
X181000Y139500
X187500Y145000
X205500
X192000Y129500
X190000Y124000
X185500Y124500
X196000Y112500
X193000Y106500
X204500Y107000
X208000Y107500
X206500Y112500
X224000Y126000
X229500Y131500
X281500Y145000
X290500
X290000Y108500
X272500Y109000
X272000Y83000
X253500Y76000
Y66000
Y58500
X257000Y45500
X253000Y37000
X248000
X223000Y37500
X219000
X199500Y47500
X194000Y60500
X180000Y103500
X326500Y105000
X337000
X357000Y100500
X355000Y126500
X341500Y127500
X334500Y131000
X370500Y126000
X355500Y153500
X357000Y70500
X352500Y68000
X340000Y55250
X324000Y58500
X326000Y46000
X314000Y34000
X355500Y179500
X343500Y214500
X345500Y226500
X337000Y258500
X326500Y262500
X326000Y273000
X332000Y268500
X340000Y273000
X363500Y267000
Y261500
X361000Y256000
X284000Y247500
X295500Y231000
X245000Y185000
X231000Y181000
X163500Y211500
X154500Y223500
X147000Y247500
X97976Y255976
X95000Y262500
X107000Y265500
X52500Y254000
X31000Y245000
X45500Y226000
X63000Y232500
T02
X18000Y16000
X12000Y26000
X17000Y58000
X13500Y63500
X44000Y60000
X91000Y64500
X94500Y5500
X54500
X154000Y5000
X270500Y12000
X300000Y11500
X276000Y125500
X243500Y129500
X236500Y151500
X334000Y123500
X347000Y78500
X361000Y92000
X361500Y30000
X352500Y27000
X332000Y18500
X325000Y52500
X315000Y43000
X382000Y215500
X378000Y259500
X381000Y270000
X368000Y255000
X295500Y256000
X294500Y242000
X278000Y253500
X254000Y267500
X224000
X156500Y181000
X162000Y156500
X95000Y184000
X91500Y251000
X56000Y261000
X25500Y252000
X15500
X35500Y161500
T03
X75000Y27000
X85000
X95000
X105000
X122000
X132000
X142000
X152000
X120000Y123500
Y133500
Y143500
Y153500
X79500Y147500
X69500
Y137500
X79500
Y127500
X69500
Y117500
X79500
Y107500
X69500
Y97500
X79500
Y87500
X69500
X45000Y119500
Y129500
X12500Y152000
X161000Y117500
X171000
X181000
X191000
X201000
X211000
X221000
X231000
X262000Y113500
Y103500
Y93500
Y83500
Y73500
X234500Y54000
X224500
X214500
X204500
X194500
X184500
X174500
X164500
X164000Y80000
Y90000
X174000
Y80000
X184000
Y90000
X194000
Y80000
X204000
Y90000
X214000
Y80000
X309500Y87500
Y97500
Y107500
Y117500
Y127500
Y137500
Y147500
X309500Y68500
X319500
X329500
X339500
X319500Y87500
Y97500
Y107500
Y117500
Y127500
Y137500
Y147500
Y157500
Y167500
Y177500
Y187500
Y197500
Y207500
Y217500
Y227500
Y237500
Y247500
Y257500
Y267500
X334500Y252000
Y242000
X360000Y245500
Y235500
Y225500
Y215500
Y205500
X309500Y207500
Y217500
Y227500
Y237500
Y247500
Y257500
Y267500
X268000Y267000
Y257000
Y247000
Y237000
Y227000
Y217000
X264000Y199500
X274000
X284000
Y176000
X274000
X264000
X254000
Y199500
X218000Y191500
X208000
X198000
X188000
X170000Y196000
Y206000
Y216000
Y226000
Y236000
Y246000
Y256000
Y266000
X188000Y168000
X198000
X208000
X218000
X309500Y167500
Y177500
Y187500
Y197500
Y157500
X155000Y196500
X145000
X135000
Y206500
X145000
X155000
X120000Y206000
Y216000
Y226000
Y236000
Y246000
Y256000
Y266000
X79500Y267500
X69500
Y257500
X79500
Y247500
X69500
Y237500
X79500
Y227500
X69500
Y217500
X79500
Y207500
X69500
Y197500
X79500
Y187500
X69500
Y177500
X79500
Y167500
X69500
Y157500
X79500
X120000Y163500
Y196000
X42000Y192000
Y182000
Y172000
X12500
Y162000
Y182000
Y192000
Y202000
X42000
T04
X12500Y101000
Y111000
T05
X134500Y267000
X154500
T06
X46000Y88500
Y98500
M30
