G04*
G04 #@! TF.GenerationSoftware,Altium Limited,Altium Designer,19.1.7 (138)*
G04*
G04 Layer_Color=16711935*
%FSLAX25Y25*%
%MOIN*%
G70*
G01*
G75*
%ADD22R,0.04737X0.05131*%
%ADD24R,0.04000X0.04800*%
%ADD26C,0.06706*%
%ADD27R,0.06706X0.06706*%
%ADD28C,0.07099*%
%ADD29R,0.06706X0.06706*%
%ADD30C,0.07000*%
%ADD31O,0.09853X0.08280*%
%ADD32C,0.06800*%
%ADD48R,0.04800X0.04000*%
%ADD49R,0.05131X0.04737*%
G36*
X131900Y221325D02*
X129500Y223725D01*
X127100Y221325D01*
Y225125D01*
X131900D01*
Y221325D01*
D02*
G37*
G36*
Y221125D02*
Y220125D01*
X127100D01*
Y221125D01*
X129500Y223525D01*
X131900Y221125D01*
D02*
G37*
G36*
X270000Y190500D02*
Y188100D01*
X266200D01*
X268600Y190500D01*
X266200Y192900D01*
X270000D01*
Y190500D01*
D02*
G37*
G36*
X268400D02*
X266000Y188100D01*
X265000D01*
Y192900D01*
X266000D01*
X268400Y190500D01*
D02*
G37*
G36*
X269750Y184500D02*
Y182100D01*
X265950D01*
X268350Y184500D01*
X265950Y186900D01*
X269750D01*
Y184500D01*
D02*
G37*
G36*
X268150D02*
X265750Y182100D01*
X264750D01*
Y186900D01*
X265750D01*
X268150Y184500D01*
D02*
G37*
G36*
X248203Y89500D02*
Y87100D01*
X244403D01*
X246803Y89500D01*
X244403Y91900D01*
X248203D01*
Y89500D01*
D02*
G37*
G36*
X246603D02*
X244203Y87100D01*
X243203D01*
Y91900D01*
X244203D01*
X246603Y89500D01*
D02*
G37*
G36*
X247953Y73600D02*
X246953D01*
X244553Y76000D01*
X246953Y78400D01*
X247953D01*
Y73600D01*
D02*
G37*
G36*
X244353Y76000D02*
X246753Y73600D01*
X242953D01*
Y76000D01*
Y78400D01*
X246753D01*
X244353Y76000D01*
D02*
G37*
D22*
X352500Y269500D02*
D03*
X346202D02*
D03*
X352500Y253500D02*
D03*
X346202D02*
D03*
X352500Y261500D02*
D03*
X346202D02*
D03*
X365000Y137000D02*
D03*
X358701D02*
D03*
X368500Y240500D02*
D03*
X375586D02*
D03*
X368500Y224500D02*
D03*
X375586D02*
D03*
X368500Y209000D02*
D03*
X375586D02*
D03*
X140649Y243894D02*
D03*
X134351D02*
D03*
X159149D02*
D03*
X152851D02*
D03*
X148500Y229000D02*
D03*
X142202D02*
D03*
X146913Y37500D02*
D03*
X154000D02*
D03*
X99913Y38000D02*
D03*
X107000D02*
D03*
X249121Y104500D02*
D03*
X242035D02*
D03*
X28701Y263000D02*
D03*
X35000D02*
D03*
X38000Y237500D02*
D03*
X30914D02*
D03*
X52500Y226000D02*
D03*
X58798D02*
D03*
X358701Y109500D02*
D03*
X365000D02*
D03*
X358701Y189000D02*
D03*
X365000D02*
D03*
X358701Y163500D02*
D03*
X365000D02*
D03*
D24*
X242203Y89500D02*
D03*
X248953D02*
D03*
X263750Y184500D02*
D03*
X270500D02*
D03*
X264000Y190500D02*
D03*
X270750D02*
D03*
X248953Y76000D02*
D03*
X242203D02*
D03*
D26*
X360000Y245500D02*
D03*
Y235500D02*
D03*
Y225500D02*
D03*
Y215500D02*
D03*
X334500Y242000D02*
D03*
X164500Y54000D02*
D03*
X174500D02*
D03*
X184500D02*
D03*
X194500D02*
D03*
X204500D02*
D03*
X214500D02*
D03*
X224500D02*
D03*
X12500Y152000D02*
D03*
Y162000D02*
D03*
Y172000D02*
D03*
Y182000D02*
D03*
Y192000D02*
D03*
X329500Y68500D02*
D03*
X319500D02*
D03*
X309500D02*
D03*
X221000Y117500D02*
D03*
X211000D02*
D03*
X201000D02*
D03*
X191000D02*
D03*
X181000D02*
D03*
X171000D02*
D03*
X161000D02*
D03*
X164000Y90000D02*
D03*
X174000Y80000D02*
D03*
Y90000D02*
D03*
X184000Y80000D02*
D03*
Y90000D02*
D03*
X194000Y80000D02*
D03*
Y90000D02*
D03*
X204000Y80000D02*
D03*
Y90000D02*
D03*
X214000Y80000D02*
D03*
Y90000D02*
D03*
X208000Y168000D02*
D03*
X198000D02*
D03*
X188000D02*
D03*
X198000Y191500D02*
D03*
X208000D02*
D03*
X218000D02*
D03*
X284000Y199500D02*
D03*
X274000D02*
D03*
X264000D02*
D03*
X284000Y176000D02*
D03*
X274000D02*
D03*
X264000D02*
D03*
X268000Y217000D02*
D03*
Y227000D02*
D03*
Y237000D02*
D03*
Y247000D02*
D03*
Y257000D02*
D03*
X135000Y206500D02*
D03*
X145000Y196500D02*
D03*
Y206500D02*
D03*
X155000Y196500D02*
D03*
Y206500D02*
D03*
X120000Y256000D02*
D03*
Y246000D02*
D03*
Y236000D02*
D03*
Y226000D02*
D03*
Y216000D02*
D03*
Y206000D02*
D03*
Y196000D02*
D03*
X170000D02*
D03*
Y206000D02*
D03*
Y216000D02*
D03*
Y226000D02*
D03*
Y236000D02*
D03*
Y246000D02*
D03*
Y256000D02*
D03*
Y266000D02*
D03*
X309500Y267500D02*
D03*
X319500Y257500D02*
D03*
X309500D02*
D03*
X319500Y247500D02*
D03*
X309500D02*
D03*
X319500Y237500D02*
D03*
X309500D02*
D03*
X319500Y227500D02*
D03*
X309500D02*
D03*
X319500Y217500D02*
D03*
X309500D02*
D03*
X319500Y207500D02*
D03*
X309500D02*
D03*
X319500Y197500D02*
D03*
X309500D02*
D03*
X319500Y187500D02*
D03*
X309500D02*
D03*
X319500Y177500D02*
D03*
X309500D02*
D03*
X319500Y167500D02*
D03*
X309500D02*
D03*
X319500Y157500D02*
D03*
X309500D02*
D03*
X319500Y147500D02*
D03*
X309500D02*
D03*
X319500Y137500D02*
D03*
X309500D02*
D03*
X319500Y127500D02*
D03*
X309500D02*
D03*
X319500Y117500D02*
D03*
X309500D02*
D03*
X319500Y107500D02*
D03*
X309500D02*
D03*
X319500Y97500D02*
D03*
X309500D02*
D03*
X319500Y87500D02*
D03*
X309500D02*
D03*
X69500Y267500D02*
D03*
X79500Y257500D02*
D03*
X69500D02*
D03*
X79500Y247500D02*
D03*
X69500D02*
D03*
X79500Y237500D02*
D03*
X69500D02*
D03*
X79500Y227500D02*
D03*
X69500D02*
D03*
X79500Y217500D02*
D03*
X69500D02*
D03*
X79500Y207500D02*
D03*
X69500D02*
D03*
X79500Y197500D02*
D03*
X69500D02*
D03*
X79500Y187500D02*
D03*
X69500D02*
D03*
X79500Y177500D02*
D03*
X69500D02*
D03*
X79500Y167500D02*
D03*
X69500D02*
D03*
X79500Y157500D02*
D03*
X69500D02*
D03*
X79500Y147500D02*
D03*
X69500D02*
D03*
X79500Y137500D02*
D03*
X69500D02*
D03*
X79500Y127500D02*
D03*
X69500D02*
D03*
X79500Y117500D02*
D03*
X69500D02*
D03*
X79500Y107500D02*
D03*
X69500D02*
D03*
X79500Y97500D02*
D03*
X69500D02*
D03*
X79500Y87500D02*
D03*
X69500D02*
D03*
X120000Y133500D02*
D03*
Y143500D02*
D03*
Y153500D02*
D03*
Y163500D02*
D03*
X262000Y83500D02*
D03*
Y93500D02*
D03*
Y103500D02*
D03*
Y113500D02*
D03*
X122000Y27000D02*
D03*
X132000D02*
D03*
X142000D02*
D03*
X75000D02*
D03*
X85000D02*
D03*
X95000D02*
D03*
X45000Y119500D02*
D03*
X42000Y172000D02*
D03*
Y182000D02*
D03*
Y192000D02*
D03*
D27*
X360000Y205500D02*
D03*
X334500Y252000D02*
D03*
X12500Y202000D02*
D03*
X268000Y267000D02*
D03*
X319500Y267500D02*
D03*
X79500D02*
D03*
X120000Y123500D02*
D03*
X262000Y73500D02*
D03*
X45000Y129500D02*
D03*
X42000Y202000D02*
D03*
D28*
X46000Y88500D02*
D03*
Y98500D02*
D03*
D29*
X234500Y54000D02*
D03*
X339500Y68500D02*
D03*
X231000Y117500D02*
D03*
X164000Y80000D02*
D03*
X218000Y168000D02*
D03*
X188000Y191500D02*
D03*
X254000Y199500D02*
D03*
Y176000D02*
D03*
X135000Y196500D02*
D03*
X120000Y266000D02*
D03*
X152000Y27000D02*
D03*
X105000D02*
D03*
D30*
X154500Y267000D02*
D03*
X134500D02*
D03*
D31*
X232500Y230500D02*
D03*
X202500D02*
D03*
D32*
X12500Y101000D02*
D03*
Y111000D02*
D03*
D48*
X129500Y219125D02*
D03*
Y225875D02*
D03*
D49*
X24500Y109587D02*
D03*
Y102500D02*
D03*
M02*
