G04*
G04 #@! TF.GenerationSoftware,Altium Limited,Altium Designer,19.1.7 (138)*
G04*
G04 Layer_Color=8388736*
%FSLAX25Y25*%
%MOIN*%
G70*
G01*
G75*
%ADD21R,0.08280X0.07493*%
%ADD22R,0.04737X0.05131*%
%ADD23R,0.03162X0.02769*%
%ADD24R,0.04000X0.04800*%
%ADD25O,0.07486X0.03359*%
%ADD26C,0.06706*%
%ADD27R,0.06706X0.06706*%
%ADD28C,0.07099*%
%ADD29R,0.06706X0.06706*%
%ADD30C,0.07000*%
%ADD31O,0.09853X0.08280*%
%ADD32C,0.06800*%
G36*
X163250Y124600D02*
X162250D01*
X159850Y127000D01*
X162250Y129400D01*
X163250D01*
Y124600D01*
D02*
G37*
G36*
X159650Y127000D02*
X162050Y124600D01*
X158250D01*
Y127000D01*
Y129400D01*
X162050D01*
X159650Y127000D01*
D02*
G37*
D21*
X345430Y110500D02*
D03*
X378500D02*
D03*
X49035Y263000D02*
D03*
X15965D02*
D03*
X17966Y237500D02*
D03*
X51035D02*
D03*
X378500Y189000D02*
D03*
X345430D02*
D03*
X378500Y163500D02*
D03*
X345430D02*
D03*
X378570Y136500D02*
D03*
X345500D02*
D03*
D22*
X172500Y127000D02*
D03*
X178798D02*
D03*
X129413Y110500D02*
D03*
X136500D02*
D03*
D23*
X375000Y264512D02*
D03*
Y261756D02*
D03*
X375000Y259000D02*
D03*
X369488D02*
D03*
Y261756D02*
D03*
Y264512D02*
D03*
D24*
X164250Y127000D02*
D03*
X157500D02*
D03*
D25*
X108933Y102000D02*
D03*
Y97000D02*
D03*
Y92000D02*
D03*
Y87000D02*
D03*
X138067Y102000D02*
D03*
Y97000D02*
D03*
Y92000D02*
D03*
Y87000D02*
D03*
D26*
X360000Y245500D02*
D03*
Y235500D02*
D03*
Y225500D02*
D03*
Y215500D02*
D03*
X334500Y242000D02*
D03*
X164500Y54000D02*
D03*
X174500D02*
D03*
X184500D02*
D03*
X194500D02*
D03*
X204500D02*
D03*
X214500D02*
D03*
X224500D02*
D03*
X12500Y152000D02*
D03*
Y162000D02*
D03*
Y172000D02*
D03*
Y182000D02*
D03*
Y192000D02*
D03*
X329500Y68500D02*
D03*
X319500D02*
D03*
X309500D02*
D03*
X221000Y117500D02*
D03*
X211000D02*
D03*
X201000D02*
D03*
X191000D02*
D03*
X181000D02*
D03*
X171000D02*
D03*
X161000D02*
D03*
X164000Y90000D02*
D03*
X174000Y80000D02*
D03*
Y90000D02*
D03*
X184000Y80000D02*
D03*
Y90000D02*
D03*
X194000Y80000D02*
D03*
Y90000D02*
D03*
X204000Y80000D02*
D03*
Y90000D02*
D03*
X214000Y80000D02*
D03*
Y90000D02*
D03*
X208000Y168000D02*
D03*
X198000D02*
D03*
X188000D02*
D03*
X198000Y191500D02*
D03*
X208000D02*
D03*
X218000D02*
D03*
X284000Y199500D02*
D03*
X274000D02*
D03*
X264000D02*
D03*
X284000Y176000D02*
D03*
X274000D02*
D03*
X264000D02*
D03*
X268000Y217000D02*
D03*
Y227000D02*
D03*
Y237000D02*
D03*
Y247000D02*
D03*
Y257000D02*
D03*
X135000Y206500D02*
D03*
X145000Y196500D02*
D03*
Y206500D02*
D03*
X155000Y196500D02*
D03*
Y206500D02*
D03*
X120000Y256000D02*
D03*
Y246000D02*
D03*
Y236000D02*
D03*
Y226000D02*
D03*
Y216000D02*
D03*
Y206000D02*
D03*
Y196000D02*
D03*
X170000D02*
D03*
Y206000D02*
D03*
Y216000D02*
D03*
Y226000D02*
D03*
Y236000D02*
D03*
Y246000D02*
D03*
Y256000D02*
D03*
Y266000D02*
D03*
X309500Y267500D02*
D03*
X319500Y257500D02*
D03*
X309500D02*
D03*
X319500Y247500D02*
D03*
X309500D02*
D03*
X319500Y237500D02*
D03*
X309500D02*
D03*
X319500Y227500D02*
D03*
X309500D02*
D03*
X319500Y217500D02*
D03*
X309500D02*
D03*
X319500Y207500D02*
D03*
X309500D02*
D03*
X319500Y197500D02*
D03*
X309500D02*
D03*
X319500Y187500D02*
D03*
X309500D02*
D03*
X319500Y177500D02*
D03*
X309500D02*
D03*
X319500Y167500D02*
D03*
X309500D02*
D03*
X319500Y157500D02*
D03*
X309500D02*
D03*
X319500Y147500D02*
D03*
X309500D02*
D03*
X319500Y137500D02*
D03*
X309500D02*
D03*
X319500Y127500D02*
D03*
X309500D02*
D03*
X319500Y117500D02*
D03*
X309500D02*
D03*
X319500Y107500D02*
D03*
X309500D02*
D03*
X319500Y97500D02*
D03*
X309500D02*
D03*
X319500Y87500D02*
D03*
X309500D02*
D03*
X69500Y267500D02*
D03*
X79500Y257500D02*
D03*
X69500D02*
D03*
X79500Y247500D02*
D03*
X69500D02*
D03*
X79500Y237500D02*
D03*
X69500D02*
D03*
X79500Y227500D02*
D03*
X69500D02*
D03*
X79500Y217500D02*
D03*
X69500D02*
D03*
X79500Y207500D02*
D03*
X69500D02*
D03*
X79500Y197500D02*
D03*
X69500D02*
D03*
X79500Y187500D02*
D03*
X69500D02*
D03*
X79500Y177500D02*
D03*
X69500D02*
D03*
X79500Y167500D02*
D03*
X69500D02*
D03*
X79500Y157500D02*
D03*
X69500D02*
D03*
X79500Y147500D02*
D03*
X69500D02*
D03*
X79500Y137500D02*
D03*
X69500D02*
D03*
X79500Y127500D02*
D03*
X69500D02*
D03*
X79500Y117500D02*
D03*
X69500D02*
D03*
X79500Y107500D02*
D03*
X69500D02*
D03*
X79500Y97500D02*
D03*
X69500D02*
D03*
X79500Y87500D02*
D03*
X69500D02*
D03*
X120000Y133500D02*
D03*
Y143500D02*
D03*
Y153500D02*
D03*
Y163500D02*
D03*
X262000Y83500D02*
D03*
Y93500D02*
D03*
Y103500D02*
D03*
Y113500D02*
D03*
X122000Y27000D02*
D03*
X132000D02*
D03*
X142000D02*
D03*
X75000D02*
D03*
X85000D02*
D03*
X95000D02*
D03*
X45000Y119500D02*
D03*
X42000Y172000D02*
D03*
Y182000D02*
D03*
Y192000D02*
D03*
D27*
X360000Y205500D02*
D03*
X334500Y252000D02*
D03*
X12500Y202000D02*
D03*
X268000Y267000D02*
D03*
X319500Y267500D02*
D03*
X79500D02*
D03*
X120000Y123500D02*
D03*
X262000Y73500D02*
D03*
X45000Y129500D02*
D03*
X42000Y202000D02*
D03*
D28*
X46000Y88500D02*
D03*
Y98500D02*
D03*
D29*
X234500Y54000D02*
D03*
X339500Y68500D02*
D03*
X231000Y117500D02*
D03*
X164000Y80000D02*
D03*
X218000Y168000D02*
D03*
X188000Y191500D02*
D03*
X254000Y199500D02*
D03*
Y176000D02*
D03*
X135000Y196500D02*
D03*
X120000Y266000D02*
D03*
X152000Y27000D02*
D03*
X105000D02*
D03*
D30*
X154500Y267000D02*
D03*
X134500D02*
D03*
D31*
X232500Y230500D02*
D03*
X202500D02*
D03*
D32*
X12500Y101000D02*
D03*
Y111000D02*
D03*
M02*
