G04*
G04 #@! TF.GenerationSoftware,Altium Limited,Altium Designer,19.1.7 (138)*
G04*
G04 Layer_Color=128*
%FSLAX25Y25*%
%MOIN*%
G70*
G01*
G75*
%ADD10C,0.01000*%
%ADD11C,0.00200*%
D10*
X8374Y276091D02*
G03*
X500Y268216I0J-7874D01*
G01*
X386327D02*
G03*
X378453Y276091I-7874J0D01*
G01*
X378453Y500D02*
G03*
X386327Y8374I-0J7874D01*
G01*
X500D02*
G03*
X8374Y500I7874J0D01*
G01*
X500Y8374D02*
G03*
X8374Y500I7874J0D01*
G01*
X500Y8374D02*
Y268216D01*
X8374Y276091D02*
X378453D01*
X8500Y500D02*
X378579D01*
X386327Y8374D02*
Y268216D01*
X8374Y500D02*
X378453D01*
D11*
X358228Y245500D02*
X361772D01*
X360000Y243728D02*
Y247272D01*
X358228Y235500D02*
X361772D01*
X360000Y233728D02*
Y237272D01*
X358228Y225500D02*
X361772D01*
X360000Y223728D02*
Y227272D01*
X358228Y215500D02*
X361772D01*
X360000Y213728D02*
Y217272D01*
X358228Y205500D02*
X361772D01*
X360000Y203728D02*
Y207272D01*
X44032Y88500D02*
X47969D01*
X46000Y86532D02*
Y90469D01*
X44032Y98500D02*
X47969D01*
X46000Y96531D02*
Y100469D01*
X332728Y252000D02*
X336272D01*
X334500Y250228D02*
Y253772D01*
X332728Y242000D02*
X336272D01*
X334500Y240228D02*
Y243772D01*
X162728Y54000D02*
X166272D01*
X164500Y52228D02*
Y55772D01*
X172728Y54000D02*
X176272D01*
X174500Y52228D02*
Y55772D01*
X182728Y54000D02*
X186272D01*
X184500Y52228D02*
Y55772D01*
X192728Y54000D02*
X196272D01*
X194500Y52228D02*
Y55772D01*
X202728Y54000D02*
X206272D01*
X204500Y52228D02*
Y55772D01*
X212728Y54000D02*
X216272D01*
X214500Y52228D02*
Y55772D01*
X222728Y54000D02*
X226272D01*
X224500Y52228D02*
Y55772D01*
X232728Y54000D02*
X236272D01*
X234500Y52228D02*
Y55772D01*
X10728Y152000D02*
X14272D01*
X12500Y150228D02*
Y153772D01*
X10728Y162000D02*
X14272D01*
X12500Y160228D02*
Y163772D01*
X10728Y172000D02*
X14272D01*
X12500Y170228D02*
Y173772D01*
X10728Y182000D02*
X14272D01*
X12500Y180228D02*
Y183772D01*
X10728Y192000D02*
X14272D01*
X12500Y190228D02*
Y193772D01*
X10728Y202000D02*
X14272D01*
X12500Y200228D02*
Y203772D01*
X337728Y68500D02*
X341272D01*
X339500Y66728D02*
Y70272D01*
X327728Y68500D02*
X331272D01*
X329500Y66728D02*
Y70272D01*
X317728Y68500D02*
X321272D01*
X319500Y66728D02*
Y70272D01*
X307728Y68500D02*
X311272D01*
X309500Y66728D02*
Y70272D01*
X229228Y117500D02*
X232772D01*
X231000Y115728D02*
Y119272D01*
X219228Y117500D02*
X222772D01*
X221000Y115728D02*
Y119272D01*
X209228Y117500D02*
X212772D01*
X211000Y115728D02*
Y119272D01*
X199228Y117500D02*
X202772D01*
X201000Y115728D02*
Y119272D01*
X189228Y117500D02*
X192772D01*
X191000Y115728D02*
Y119272D01*
X179228Y117500D02*
X182772D01*
X181000Y115728D02*
Y119272D01*
X169228Y117500D02*
X172772D01*
X171000Y115728D02*
Y119272D01*
X159228Y117500D02*
X162772D01*
X161000Y115728D02*
Y119272D01*
X162228Y80000D02*
X165772D01*
X164000Y78228D02*
Y81772D01*
X162228Y90000D02*
X165772D01*
X164000Y88228D02*
Y91772D01*
X172228Y80000D02*
X175772D01*
X174000Y78228D02*
Y81772D01*
X172228Y90000D02*
X175772D01*
X174000Y88228D02*
Y91772D01*
X182228Y80000D02*
X185772D01*
X184000Y78228D02*
Y81772D01*
X182228Y90000D02*
X185772D01*
X184000Y88228D02*
Y91772D01*
X192228Y80000D02*
X195772D01*
X194000Y78228D02*
Y81772D01*
X192228Y90000D02*
X195772D01*
X194000Y88228D02*
Y91772D01*
X202228Y80000D02*
X205772D01*
X204000Y78228D02*
Y81772D01*
X202228Y90000D02*
X205772D01*
X204000Y88228D02*
Y91772D01*
X212228Y80000D02*
X215772D01*
X214000Y78228D02*
Y81772D01*
X212228Y90000D02*
X215772D01*
X214000Y88228D02*
Y91772D01*
X216228Y168000D02*
X219772D01*
X218000Y166228D02*
Y169772D01*
X206228Y168000D02*
X209772D01*
X208000Y166228D02*
Y169772D01*
X196228Y168000D02*
X199772D01*
X198000Y166228D02*
Y169772D01*
X186228Y168000D02*
X189772D01*
X188000Y166228D02*
Y169772D01*
X186228Y191500D02*
X189772D01*
X188000Y189728D02*
Y193272D01*
X196228Y191500D02*
X199772D01*
X198000Y189728D02*
Y193272D01*
X206228Y191500D02*
X209772D01*
X208000Y189728D02*
Y193272D01*
X216228Y191500D02*
X219772D01*
X218000Y189728D02*
Y193272D01*
X282228Y199500D02*
X285772D01*
X284000Y197728D02*
Y201272D01*
X272228Y199500D02*
X275772D01*
X274000Y197728D02*
Y201272D01*
X262228Y199500D02*
X265772D01*
X264000Y197728D02*
Y201272D01*
X252228Y199500D02*
X255772D01*
X254000Y197728D02*
Y201272D01*
X282228Y176000D02*
X285772D01*
X284000Y174228D02*
Y177772D01*
X272228Y176000D02*
X275772D01*
X274000Y174228D02*
Y177772D01*
X262228Y176000D02*
X265772D01*
X264000Y174228D02*
Y177772D01*
X252228Y176000D02*
X255772D01*
X254000Y174228D02*
Y177772D01*
X266228Y217000D02*
X269772D01*
X268000Y215228D02*
Y218772D01*
X266228Y227000D02*
X269772D01*
X268000Y225228D02*
Y228772D01*
X266228Y237000D02*
X269772D01*
X268000Y235228D02*
Y238772D01*
X266228Y247000D02*
X269772D01*
X268000Y245228D02*
Y248772D01*
X266228Y257000D02*
X269772D01*
X268000Y255228D02*
Y258772D01*
X266228Y267000D02*
X269772D01*
X268000Y265228D02*
Y268772D01*
X133228Y196500D02*
X136772D01*
X135000Y194728D02*
Y198272D01*
X133228Y206500D02*
X136772D01*
X135000Y204728D02*
Y208272D01*
X143228Y196500D02*
X146772D01*
X145000Y194728D02*
Y198272D01*
X143228Y206500D02*
X146772D01*
X145000Y204728D02*
Y208272D01*
X153228Y196500D02*
X156772D01*
X155000Y194728D02*
Y198272D01*
X153228Y206500D02*
X156772D01*
X155000Y204728D02*
Y208272D01*
X152550Y267000D02*
X156450D01*
X154500Y265050D02*
Y268950D01*
X132550Y267000D02*
X136450D01*
X134500Y265050D02*
Y268950D01*
X118228Y266000D02*
X121772D01*
X120000Y264228D02*
Y267772D01*
X118228Y256000D02*
X121772D01*
X120000Y254228D02*
Y257772D01*
X118228Y246000D02*
X121772D01*
X120000Y244228D02*
Y247772D01*
X118228Y236000D02*
X121772D01*
X120000Y234228D02*
Y237772D01*
X118228Y226000D02*
X121772D01*
X120000Y224228D02*
Y227772D01*
X118228Y216000D02*
X121772D01*
X120000Y214228D02*
Y217772D01*
X118228Y206000D02*
X121772D01*
X120000Y204228D02*
Y207772D01*
X118228Y196000D02*
X121772D01*
X120000Y194228D02*
Y197772D01*
X168228Y196000D02*
X171772D01*
X170000Y194228D02*
Y197772D01*
X168228Y206000D02*
X171772D01*
X170000Y204228D02*
Y207772D01*
X168228Y216000D02*
X171772D01*
X170000Y214228D02*
Y217772D01*
X168228Y226000D02*
X171772D01*
X170000Y224228D02*
Y227772D01*
X168228Y236000D02*
X171772D01*
X170000Y234228D02*
Y237772D01*
X168228Y246000D02*
X171772D01*
X170000Y244228D02*
Y247772D01*
X168228Y256000D02*
X171772D01*
X170000Y254228D02*
Y257772D01*
X168228Y266000D02*
X171772D01*
X170000Y264228D02*
Y267772D01*
X230335Y230500D02*
X234665D01*
X232500Y228335D02*
Y232665D01*
X200335Y230500D02*
X204665D01*
X202500Y228335D02*
Y232665D01*
X317729Y267500D02*
X321272D01*
X319500Y265728D02*
Y269272D01*
X307729Y267500D02*
X311272D01*
X309500Y265728D02*
Y269272D01*
X317729Y257500D02*
X321272D01*
X319500Y255728D02*
Y259272D01*
X307729Y257500D02*
X311272D01*
X309500Y255728D02*
Y259272D01*
X317729Y247500D02*
X321272D01*
X319500Y245728D02*
Y249272D01*
X307729Y247500D02*
X311272D01*
X309500Y245728D02*
Y249272D01*
X317729Y237500D02*
X321272D01*
X319500Y235728D02*
Y239272D01*
X307729Y237500D02*
X311272D01*
X309500Y235728D02*
Y239272D01*
X317729Y227500D02*
X321272D01*
X319500Y225728D02*
Y229272D01*
X307729Y227500D02*
X311272D01*
X309500Y225728D02*
Y229272D01*
X317729Y217500D02*
X321272D01*
X319500Y215728D02*
Y219272D01*
X307729Y217500D02*
X311272D01*
X309500Y215728D02*
Y219272D01*
X317729Y207500D02*
X321272D01*
X319500Y205728D02*
Y209272D01*
X307729Y207500D02*
X311272D01*
X309500Y205728D02*
Y209272D01*
X317729Y197500D02*
X321272D01*
X319500Y195728D02*
Y199272D01*
X307729Y197500D02*
X311272D01*
X309500Y195728D02*
Y199272D01*
X317729Y187500D02*
X321272D01*
X319500Y185728D02*
Y189272D01*
X307729Y187500D02*
X311272D01*
X309500Y185728D02*
Y189272D01*
X317729Y177500D02*
X321272D01*
X319500Y175728D02*
Y179272D01*
X307729Y177500D02*
X311272D01*
X309500Y175728D02*
Y179272D01*
X317729Y167500D02*
X321272D01*
X319500Y165728D02*
Y169272D01*
X307729Y167500D02*
X311272D01*
X309500Y165728D02*
Y169272D01*
X317729Y157500D02*
X321272D01*
X319500Y155728D02*
Y159272D01*
X307729Y157500D02*
X311272D01*
X309500Y155728D02*
Y159272D01*
X317729Y147500D02*
X321272D01*
X319500Y145728D02*
Y149272D01*
X307729Y147500D02*
X311272D01*
X309500Y145728D02*
Y149272D01*
X317729Y137500D02*
X321272D01*
X319500Y135728D02*
Y139272D01*
X307729Y137500D02*
X311272D01*
X309500Y135728D02*
Y139272D01*
X317729Y127500D02*
X321272D01*
X319500Y125728D02*
Y129272D01*
X307729Y127500D02*
X311272D01*
X309500Y125728D02*
Y129272D01*
X317729Y117500D02*
X321272D01*
X319500Y115728D02*
Y119272D01*
X307729Y117500D02*
X311272D01*
X309500Y115728D02*
Y119272D01*
X317729Y107500D02*
X321272D01*
X319500Y105728D02*
Y109272D01*
X307729Y107500D02*
X311272D01*
X309500Y105728D02*
Y109272D01*
X317729Y97500D02*
X321272D01*
X319500Y95728D02*
Y99272D01*
X307729Y97500D02*
X311272D01*
X309500Y95728D02*
Y99272D01*
X317729Y87500D02*
X321272D01*
X319500Y85728D02*
Y89272D01*
X307729Y87500D02*
X311272D01*
X309500Y85728D02*
Y89272D01*
X77729Y267500D02*
X81272D01*
X79500Y265728D02*
Y269272D01*
X67729Y267500D02*
X71272D01*
X69500Y265728D02*
Y269272D01*
X77729Y257500D02*
X81272D01*
X79500Y255728D02*
Y259272D01*
X67729Y257500D02*
X71272D01*
X69500Y255728D02*
Y259272D01*
X77729Y247500D02*
X81272D01*
X79500Y245728D02*
Y249272D01*
X67729Y247500D02*
X71272D01*
X69500Y245728D02*
Y249272D01*
X77729Y237500D02*
X81272D01*
X79500Y235728D02*
Y239272D01*
X67729Y237500D02*
X71272D01*
X69500Y235728D02*
Y239272D01*
X77729Y227500D02*
X81272D01*
X79500Y225728D02*
Y229272D01*
X67729Y227500D02*
X71272D01*
X69500Y225728D02*
Y229272D01*
X77729Y217500D02*
X81272D01*
X79500Y215728D02*
Y219272D01*
X67729Y217500D02*
X71272D01*
X69500Y215728D02*
Y219272D01*
X77729Y207500D02*
X81272D01*
X79500Y205728D02*
Y209272D01*
X67729Y207500D02*
X71272D01*
X69500Y205728D02*
Y209272D01*
X77729Y197500D02*
X81272D01*
X79500Y195728D02*
Y199272D01*
X67729Y197500D02*
X71272D01*
X69500Y195728D02*
Y199272D01*
X77729Y187500D02*
X81272D01*
X79500Y185728D02*
Y189272D01*
X67729Y187500D02*
X71272D01*
X69500Y185728D02*
Y189272D01*
X77729Y177500D02*
X81272D01*
X79500Y175728D02*
Y179272D01*
X67729Y177500D02*
X71272D01*
X69500Y175728D02*
Y179272D01*
X77729Y167500D02*
X81272D01*
X79500Y165728D02*
Y169272D01*
X67729Y167500D02*
X71272D01*
X69500Y165728D02*
Y169272D01*
X77729Y157500D02*
X81272D01*
X79500Y155728D02*
Y159272D01*
X67729Y157500D02*
X71272D01*
X69500Y155728D02*
Y159272D01*
X77729Y147500D02*
X81272D01*
X79500Y145728D02*
Y149272D01*
X67729Y147500D02*
X71272D01*
X69500Y145728D02*
Y149272D01*
X77729Y137500D02*
X81272D01*
X79500Y135728D02*
Y139272D01*
X67729Y137500D02*
X71272D01*
X69500Y135728D02*
Y139272D01*
X77729Y127500D02*
X81272D01*
X79500Y125728D02*
Y129272D01*
X67729Y127500D02*
X71272D01*
X69500Y125728D02*
Y129272D01*
X77729Y117500D02*
X81272D01*
X79500Y115728D02*
Y119272D01*
X67729Y117500D02*
X71272D01*
X69500Y115728D02*
Y119272D01*
X77729Y107500D02*
X81272D01*
X79500Y105728D02*
Y109272D01*
X67729Y107500D02*
X71272D01*
X69500Y105728D02*
Y109272D01*
X77729Y97500D02*
X81272D01*
X79500Y95728D02*
Y99272D01*
X67729Y97500D02*
X71272D01*
X69500Y95728D02*
Y99272D01*
X77729Y87500D02*
X81272D01*
X79500Y85728D02*
Y89272D01*
X67729Y87500D02*
X71272D01*
X69500Y85728D02*
Y89272D01*
X118228Y123500D02*
X121772D01*
X120000Y121728D02*
Y125272D01*
X118228Y133500D02*
X121772D01*
X120000Y131728D02*
Y135272D01*
X118228Y143500D02*
X121772D01*
X120000Y141728D02*
Y145272D01*
X118228Y153500D02*
X121772D01*
X120000Y151728D02*
Y155272D01*
X118228Y163500D02*
X121772D01*
X120000Y161728D02*
Y165272D01*
X260228Y73500D02*
X263772D01*
X262000Y71728D02*
Y75272D01*
X260228Y83500D02*
X263772D01*
X262000Y81728D02*
Y85272D01*
X260228Y93500D02*
X263772D01*
X262000Y91728D02*
Y95272D01*
X260228Y103500D02*
X263772D01*
X262000Y101728D02*
Y105272D01*
X260228Y113500D02*
X263772D01*
X262000Y111728D02*
Y115272D01*
X120228Y27000D02*
X123772D01*
X122000Y25228D02*
Y28772D01*
X130228Y27000D02*
X133772D01*
X132000Y25228D02*
Y28772D01*
X140228Y27000D02*
X143772D01*
X142000Y25228D02*
Y28772D01*
X150228Y27000D02*
X153772D01*
X152000Y25228D02*
Y28772D01*
X73228Y27000D02*
X76772D01*
X75000Y25228D02*
Y28772D01*
X83228Y27000D02*
X86772D01*
X85000Y25228D02*
Y28772D01*
X93228Y27000D02*
X96772D01*
X95000Y25228D02*
Y28772D01*
X103228Y27000D02*
X106772D01*
X105000Y25228D02*
Y28772D01*
X10700Y101000D02*
X14300D01*
X12500Y99200D02*
Y102800D01*
X10700Y111000D02*
X14300D01*
X12500Y109200D02*
Y112800D01*
X43228Y119500D02*
X46772D01*
X45000Y117728D02*
Y121272D01*
X43228Y129500D02*
X46772D01*
X45000Y127728D02*
Y131272D01*
X40228Y172000D02*
X43772D01*
X42000Y170228D02*
Y173772D01*
X40228Y182000D02*
X43772D01*
X42000Y180228D02*
Y183772D01*
X40228Y192000D02*
X43772D01*
X42000Y190228D02*
Y193772D01*
X40228Y202000D02*
X43772D01*
X42000Y200228D02*
Y203772D01*
X94500Y184000D02*
X95500D01*
X95000Y183500D02*
Y184500D01*
X223500Y267500D02*
X224500D01*
X224000Y267000D02*
Y268000D01*
X253500Y267500D02*
X254500D01*
X254000Y267000D02*
Y268000D01*
X277500Y253500D02*
X278500D01*
X278000Y253000D02*
Y254000D01*
X295000Y256000D02*
X296000D01*
X295500Y255500D02*
Y256500D01*
X333500Y123500D02*
X334500D01*
X334000Y123000D02*
Y124000D01*
X360500Y92000D02*
X361500D01*
X361000Y91500D02*
Y92500D01*
X346500Y78500D02*
X347500D01*
X347000Y78000D02*
Y79000D01*
X314500Y43000D02*
X315500D01*
X315000Y42500D02*
Y43500D01*
X324500Y52500D02*
X325500D01*
X325000Y52000D02*
Y53000D01*
X90500Y64500D02*
X91500D01*
X91000Y64000D02*
Y65000D01*
X43500Y60000D02*
X44500D01*
X44000Y59500D02*
Y60500D01*
X16500Y58000D02*
X17500D01*
X17000Y57500D02*
Y58500D01*
X13000Y63500D02*
X14000D01*
X13500Y63000D02*
Y64000D01*
X35000Y161500D02*
X36000D01*
X35500Y161000D02*
Y162000D01*
X294000Y242000D02*
X295000D01*
X294500Y241500D02*
Y242500D01*
X367500Y255000D02*
X368500D01*
X368000Y254500D02*
Y255500D01*
X380500Y270000D02*
X381500D01*
X381000Y269500D02*
Y270500D01*
X275500Y125500D02*
X276500D01*
X276000Y125000D02*
Y126000D01*
X243000Y129500D02*
X244000D01*
X243500Y129000D02*
Y130000D01*
X236000Y151500D02*
X237000D01*
X236500Y151000D02*
Y152000D01*
X161500Y156500D02*
X162500D01*
X162000Y156000D02*
Y157000D01*
X156000Y181000D02*
X157000D01*
X156500Y180500D02*
Y181500D01*
X91000Y251000D02*
X92000D01*
X91500Y250500D02*
Y251500D01*
X55500Y261000D02*
X56500D01*
X56000Y260500D02*
Y261500D01*
X25000Y252000D02*
X26000D01*
X25500Y251500D02*
Y252500D01*
X15000Y252000D02*
X16000D01*
X15500Y251500D02*
Y252500D01*
X153500Y5000D02*
X154500D01*
X154000Y4500D02*
Y5500D01*
X94000D02*
X95000D01*
X94500Y5000D02*
Y6000D01*
X54000Y5500D02*
X55000D01*
X54500Y5000D02*
Y6000D01*
X11500Y26000D02*
X12500D01*
X12000Y25500D02*
Y26500D01*
X17500Y16000D02*
X18500D01*
X18000Y15500D02*
Y16500D01*
X270000Y12000D02*
X271000D01*
X270500Y11500D02*
Y12500D01*
X299500Y11500D02*
X300500D01*
X300000Y11000D02*
Y12000D01*
X331500Y18500D02*
X332500D01*
X332000Y18000D02*
Y19000D01*
X352000Y27000D02*
X353000D01*
X352500Y26500D02*
Y27500D01*
X361000Y30000D02*
X362000D01*
X361500Y29500D02*
Y30500D01*
X29600Y80000D02*
X30400D01*
X30000Y79600D02*
Y80400D01*
X247600Y37000D02*
X248400D01*
X248000Y36600D02*
Y37400D01*
X218600Y37500D02*
X219400D01*
X219000Y37100D02*
Y37900D01*
X222600Y37500D02*
X223400D01*
X223000Y37100D02*
Y37900D01*
X180600Y139500D02*
X181400D01*
X181000Y139100D02*
Y139900D01*
X205100Y145000D02*
X205900D01*
X205500Y144600D02*
Y145400D01*
X187100Y145000D02*
X187900D01*
X187500Y144600D02*
Y145400D01*
X53600Y144000D02*
X54400D01*
X54000Y143600D02*
Y144400D01*
X53600Y96500D02*
X54400D01*
X54000Y96100D02*
Y96900D01*
X53600Y67000D02*
X54400D01*
X54000Y66600D02*
Y67400D01*
X53600Y38000D02*
X54400D01*
X54000Y37600D02*
Y38400D01*
X289600Y108500D02*
X290400D01*
X290000Y108100D02*
Y108900D01*
X253100Y58500D02*
X253900D01*
X253500Y58100D02*
Y58900D01*
X252600Y37000D02*
X253400D01*
X253000Y36600D02*
Y37400D01*
X313600Y34000D02*
X314400D01*
X314000Y33600D02*
Y34400D01*
X339600Y55250D02*
X340400D01*
X340000Y54850D02*
Y55650D01*
X325600Y46000D02*
X326400D01*
X326000Y45600D02*
Y46400D01*
X199100Y47500D02*
X199900D01*
X199500Y47100D02*
Y47900D01*
X256600Y45500D02*
X257400D01*
X257000Y45100D02*
Y45900D01*
X253100Y66000D02*
X253900D01*
X253500Y65600D02*
Y66400D01*
X271600Y83000D02*
X272400D01*
X272000Y82600D02*
Y83400D01*
X370100Y126000D02*
X370900D01*
X370500Y125600D02*
Y126400D01*
X356600Y70500D02*
X357400D01*
X357000Y70100D02*
Y70900D01*
X323600Y58500D02*
X324400D01*
X324000Y58100D02*
Y58900D01*
X195600Y112500D02*
X196400D01*
X196000Y112100D02*
Y112900D01*
X192600Y106500D02*
X193400D01*
X193000Y106100D02*
Y106900D01*
X179600Y103500D02*
X180400D01*
X180000Y103100D02*
Y103900D01*
X223600Y126000D02*
X224400D01*
X224000Y125600D02*
Y126400D01*
X193600Y60500D02*
X194400D01*
X194000Y60100D02*
Y60900D01*
X207600Y107500D02*
X208400D01*
X208000Y107100D02*
Y107900D01*
X88600Y113000D02*
X89400D01*
X89000Y112600D02*
Y113400D01*
X206100Y112500D02*
X206900D01*
X206500Y112100D02*
Y112900D01*
X204100Y107000D02*
X204900D01*
X204500Y106600D02*
Y107400D01*
X163100Y211500D02*
X163900D01*
X163500Y211100D02*
Y211900D01*
X189600Y124000D02*
X190400D01*
X190000Y123600D02*
Y124400D01*
X191600Y129500D02*
X192400D01*
X192000Y129100D02*
Y129900D01*
X326100Y262500D02*
X326900D01*
X326500Y262100D02*
Y262900D01*
X339600Y273000D02*
X340400D01*
X340000Y272600D02*
Y273400D01*
X290100Y145000D02*
X290900D01*
X290500Y144600D02*
Y145400D01*
X281100Y145000D02*
X281900D01*
X281500Y144600D02*
Y145400D01*
X272100Y109000D02*
X272900D01*
X272500Y108600D02*
Y109400D01*
X230600Y181000D02*
X231400D01*
X231000Y180600D02*
Y181400D01*
X244600Y185000D02*
X245400D01*
X245000Y184600D02*
Y185400D01*
X229100Y131500D02*
X229900D01*
X229500Y131100D02*
Y131900D01*
X132100Y102000D02*
X132900D01*
X132500Y101600D02*
Y102400D01*
X147600Y127000D02*
X148400D01*
X148000Y126600D02*
Y127400D01*
X185100Y124500D02*
X185900D01*
X185500Y124100D02*
Y124900D01*
X143600Y107000D02*
X144400D01*
X144000Y106600D02*
Y107400D01*
X295100Y231000D02*
X295900D01*
X295500Y230600D02*
Y231400D01*
X341100Y127500D02*
X341900D01*
X341500Y127100D02*
Y127900D01*
X101600Y90000D02*
X102400D01*
X102000Y89600D02*
Y90400D01*
X74600Y67500D02*
X75400D01*
X75000Y67100D02*
Y67900D01*
X334100Y131000D02*
X334900D01*
X334500Y130600D02*
Y131400D01*
X336600Y105000D02*
X337400D01*
X337000Y104600D02*
Y105400D01*
X253100Y76000D02*
X253900D01*
X253500Y75600D02*
Y76400D01*
X106600Y265500D02*
X107400D01*
X107000Y265100D02*
Y265900D01*
X94600Y262500D02*
X95400D01*
X95000Y262100D02*
Y262900D01*
X97576Y255976D02*
X98376D01*
X97976Y255576D02*
Y256376D01*
X343100Y214500D02*
X343900D01*
X343500Y214100D02*
Y214900D01*
X326100Y105000D02*
X326900D01*
X326500Y104600D02*
Y105400D01*
X129100Y103000D02*
X129900D01*
X129500Y102600D02*
Y103400D01*
X115100Y85000D02*
X115900D01*
X115500Y84600D02*
Y85400D01*
X118600Y78000D02*
X119400D01*
X119000Y77600D02*
Y78400D01*
X154100Y223500D02*
X154900D01*
X154500Y223100D02*
Y223900D01*
X146600Y247500D02*
X147400D01*
X147000Y247100D02*
Y247900D01*
X62600Y232500D02*
X63400D01*
X63000Y232100D02*
Y232900D01*
X30600Y245000D02*
X31400D01*
X31000Y244600D02*
Y245400D01*
X52100Y254000D02*
X52900D01*
X52500Y253600D02*
Y254400D01*
X45100Y226000D02*
X45900D01*
X45500Y225600D02*
Y226400D01*
X325600Y273000D02*
X326400D01*
X326000Y272600D02*
Y273400D01*
X331600Y268500D02*
X332400D01*
X332000Y268100D02*
Y268900D01*
X336600Y258500D02*
X337400D01*
X337000Y258100D02*
Y258900D01*
X345100Y226500D02*
X345900D01*
X345500Y226100D02*
Y226900D01*
X381500Y215500D02*
X382500D01*
X382000Y215000D02*
Y216000D01*
X352100Y68000D02*
X352900D01*
X352500Y67600D02*
Y68400D01*
X355100Y179500D02*
X355900D01*
X355500Y179100D02*
Y179900D01*
X355100Y153500D02*
X355900D01*
X355500Y153100D02*
Y153900D01*
X354600Y126500D02*
X355400D01*
X355000Y126100D02*
Y126900D01*
X356600Y100500D02*
X357400D01*
X357000Y100100D02*
Y100900D01*
X283600Y247500D02*
X284400D01*
X284000Y247100D02*
Y247900D01*
X377500Y259500D02*
X378500D01*
X378000Y259000D02*
Y260000D01*
X360600Y256000D02*
X361400D01*
X361000Y255600D02*
Y256400D01*
X363100Y261500D02*
X363900D01*
X363500Y261100D02*
Y261900D01*
X363100Y267000D02*
X363900D01*
X363500Y266600D02*
Y267400D01*
M02*
